<svg xmlns="http://www.w3.org/2000/svg" style="display: none;">
  <!--Youtube icono-->
  <symbol id="youtube" viewBox="0 0 24 24">
    <path fill-rule="evenodd" d="M21.5 7.04C21.31 6.37 20.79 5.86 20.12 5.67C18.44 5.2 12 5.2 12 5.2C12 5.2 5.56 5.2 3.88 5.67C3.21 5.86 2.69 6.37 2.5 7.04C2.03 8.72 2.03 12 2.03 12C2.03 12 2.03 15.28 2.5 16.96C2.69 17.63 3.21 18.14 3.88 18.33C5.56 18.8 12 18.8 12 18.8C12 18.8 18.44 18.8 20.12 18.33C20.79 18.14 21.31 17.63 21.5 16.96C21.97 15.28 21.97 12 21.97 12C21.97 12 21.97 8.72 21.5 7.04ZM9.78 15.15V8.85L15.36 12L9.78 15.15Z"/>
  </symbol>

  <!-- LinkedIn icono -->
  <symbol id="linkedin" viewBox="0 0 24 24">
    <path d="M20.447 20.452h-3.554v-5.569c0-1.328-.027-3.037-1.852-3.037-1.853 0-2.136 1.445-2.136 2.939v5.667h-3.556V9h3.414v1.561h.046c.477-.9 1.637-1.85 3.37-1.85 3.601 0 4.267 2.37 4.267 5.455v6.286zM5.337 7.433a2.062 2.062 0 0 1-2.063-2.065 2.064 2.064 0 1 1 2.063 2.065zm1.782 13.019H3.555V9h3.564v11.452zM22.225 0H1.771C.792 0 0 .774 0 1.729v20.542C0 23.227.792 24 1.771 24h20.451C23.2 24 24 23.227 24 22.271V1.729C24 .774 23.2 0 22.225 0z"/>
  </symbol>

  <!-- Instagram icono -->
  <symbol id="instagram" viewBox="0 0 24 24">
    <path d="M12 2.163c3.204 0 3.584.012 4.85.07 3.252.148 4.771 1.691 4.919 4.919.058 1.265.069 1.645.069 4.85s-.011 3.584-.069 4.85c-.149 3.225-1.664 4.771-4.919 4.919-1.266.058-1.644.07-4.85.07s-3.584-.012-4.85-.07c-3.252-.148-4.771-1.691-4.919-4.919-.058-1.265-.069-1.645-.069-4.85s.011-3.584.069-4.85c.149-3.225 1.664-4.771 4.919-4.919 1.266-.058 1.644.07 4.85-.07M12 0C8.741 0 8.333.014 7.053.072 2.695.272.273 2.69.073 7.052.014 8.333 0 8.741 0 12s.014 3.667.072 4.947c.2 4.358 2.618 6.78 6.98 6.98C8.333 23.986 8.741 24 12 24s3.667-.014 4.947-.072c4.358-.2 6.78-2.618 6.98-6.98.058-1.28.072-1.687.072-4.947s-.014-3.667-.072-4.947c-.2-4.358-2.618-6.78-6.98-6.98C15.667.014 15.259 0 12 0zm0 5.838a6.162 6.162 0 1 0 0 12.324 6.162 6.162 0 0 0 0-12.324zM12 16a4 4 0 1 1 0-8 4 4 0 0 1 0 8zm6.406-11.845a1.44 1.44 0 1 0 0 2.88 1.44 1.44 0 0 0 0-2.88z"/>
  </symbol>
</svg>